<mxfile host="app.diagrams.net" modified="2023-10-13T09:20:08.636Z" agent="Mozilla/5.0 (Windows NT 10.0; Win64; x64) AppleWebKit/537.36 (KHTML, like Gecko) Chrome/116.0.0.0 Safari/537.36 OPR/102.0.0.0 (Edition Yx GX 03)" etag="0Gmr3tfYkmiIvSRNTNFV" version="22.0.4" type="google">
  <diagram name="Страница — 1" id="w36zMTe6NZIjlMsrZG2o">
    <mxGraphModel dx="3882" dy="2390" grid="1" gridSize="10" guides="1" tooltips="1" connect="1" arrows="1" fold="1" page="1" pageScale="1" pageWidth="827" pageHeight="1169" math="0" shadow="0">
      <root>
        <mxCell id="0" />
        <mxCell id="1" parent="0" />
        <mxCell id="HUOojAvi6_j62QEI-yOp-2" value="Пользователь" style="shape=umlActor;verticalLabelPosition=bottom;verticalAlign=top;html=1;" parent="1" vertex="1">
          <mxGeometry x="-220" y="1000" width="30" height="60" as="geometry" />
        </mxCell>
        <mxCell id="HUOojAvi6_j62QEI-yOp-5" value="" style="swimlane;startSize=0;" parent="1" vertex="1">
          <mxGeometry x="-110" y="410" width="1430" height="1150" as="geometry" />
        </mxCell>
        <mxCell id="HUOojAvi6_j62QEI-yOp-41" value="Зарегистрироваться" style="ellipse;whiteSpace=wrap;html=1;" parent="HUOojAvi6_j62QEI-yOp-5" vertex="1">
          <mxGeometry x="690" y="185" width="140" height="70" as="geometry" />
        </mxCell>
        <mxCell id="HUOojAvi6_j62QEI-yOp-42" value="Авторизоваться" style="ellipse;whiteSpace=wrap;html=1;" parent="HUOojAvi6_j62QEI-yOp-5" vertex="1">
          <mxGeometry x="210" y="620" width="140" height="70" as="geometry" />
        </mxCell>
        <mxCell id="HUOojAvi6_j62QEI-yOp-43" value="Запустить стрим" style="ellipse;whiteSpace=wrap;html=1;" parent="HUOojAvi6_j62QEI-yOp-5" vertex="1">
          <mxGeometry x="480" y="510" width="140" height="70" as="geometry" />
        </mxCell>
        <mxCell id="HUOojAvi6_j62QEI-yOp-47" value="&quot;&quot;Extend&quot;&quot;" style="endArrow=open;endSize=12;dashed=1;html=1;rounded=0;exitX=1.004;exitY=0.417;exitDx=0;exitDy=0;exitPerimeter=0;" parent="HUOojAvi6_j62QEI-yOp-5" source="HUOojAvi6_j62QEI-yOp-42" target="HUOojAvi6_j62QEI-yOp-43" edge="1">
          <mxGeometry width="160" relative="1" as="geometry">
            <mxPoint x="370" y="627" as="sourcePoint" />
            <mxPoint x="461" y="620" as="targetPoint" />
          </mxGeometry>
        </mxCell>
        <mxCell id="HUOojAvi6_j62QEI-yOp-49" value="Авторизоваться" style="ellipse;whiteSpace=wrap;html=1;" parent="HUOojAvi6_j62QEI-yOp-5" vertex="1">
          <mxGeometry x="360" y="750" width="140" height="70" as="geometry" />
        </mxCell>
        <mxCell id="HUOojAvi6_j62QEI-yOp-53" value="Покинуть стрим" style="ellipse;whiteSpace=wrap;html=1;" parent="HUOojAvi6_j62QEI-yOp-5" vertex="1">
          <mxGeometry x="730" y="1030" width="140" height="70" as="geometry" />
        </mxCell>
        <mxCell id="HUOojAvi6_j62QEI-yOp-57" value="&quot;&quot;Extend&quot;&quot;" style="endArrow=open;endSize=12;dashed=1;html=1;rounded=0;exitX=0.5;exitY=1;exitDx=0;exitDy=0;entryX=0.5;entryY=0;entryDx=0;entryDy=0;" parent="HUOojAvi6_j62QEI-yOp-5" source="HUOojAvi6_j62QEI-yOp-49" target="HUOojAvi6_j62QEI-yOp-53" edge="1">
          <mxGeometry width="160" relative="1" as="geometry">
            <mxPoint x="540" y="820" as="sourcePoint" />
            <mxPoint x="626" y="871" as="targetPoint" />
          </mxGeometry>
        </mxCell>
        <mxCell id="xpUao5AcZO3L4nGrGWGt-2" style="edgeStyle=orthogonalEdgeStyle;rounded=0;orthogonalLoop=1;jettySize=auto;html=1;entryX=0.5;entryY=1;entryDx=0;entryDy=0;dashed=1;" edge="1" parent="HUOojAvi6_j62QEI-yOp-5" source="HUOojAvi6_j62QEI-yOp-58" target="HUOojAvi6_j62QEI-yOp-67">
          <mxGeometry relative="1" as="geometry" />
        </mxCell>
        <mxCell id="xpUao5AcZO3L4nGrGWGt-5" style="edgeStyle=orthogonalEdgeStyle;rounded=0;orthogonalLoop=1;jettySize=auto;html=1;exitX=1;exitY=1;exitDx=0;exitDy=0;entryX=0;entryY=0.5;entryDx=0;entryDy=0;dashed=1;endArrow=open;endFill=0;" edge="1" parent="HUOojAvi6_j62QEI-yOp-5" source="HUOojAvi6_j62QEI-yOp-58" target="xpUao5AcZO3L4nGrGWGt-4">
          <mxGeometry relative="1" as="geometry" />
        </mxCell>
        <mxCell id="xpUao5AcZO3L4nGrGWGt-8" value="&quot;include&quot;" style="edgeLabel;html=1;align=center;verticalAlign=middle;resizable=0;points=[];" vertex="1" connectable="0" parent="xpUao5AcZO3L4nGrGWGt-5">
          <mxGeometry x="-0.2165" y="4" relative="1" as="geometry">
            <mxPoint x="-3" y="4" as="offset" />
          </mxGeometry>
        </mxCell>
        <mxCell id="HUOojAvi6_j62QEI-yOp-58" value="Зайти на стрим" style="ellipse;whiteSpace=wrap;html=1;" parent="HUOojAvi6_j62QEI-yOp-5" vertex="1">
          <mxGeometry x="690" y="790" width="140" height="70" as="geometry" />
        </mxCell>
        <mxCell id="HUOojAvi6_j62QEI-yOp-59" value="Подписаться" style="ellipse;whiteSpace=wrap;html=1;" parent="HUOojAvi6_j62QEI-yOp-5" vertex="1">
          <mxGeometry x="950" y="740" width="140" height="70" as="geometry" />
        </mxCell>
        <mxCell id="HUOojAvi6_j62QEI-yOp-60" value="&quot;&quot;Extend&quot;&quot;" style="endArrow=open;endSize=12;dashed=1;html=1;rounded=0;exitX=1;exitY=0.5;exitDx=0;exitDy=0;entryX=0;entryY=0.5;entryDx=0;entryDy=0;" parent="HUOojAvi6_j62QEI-yOp-5" source="HUOojAvi6_j62QEI-yOp-49" target="HUOojAvi6_j62QEI-yOp-58" edge="1">
          <mxGeometry width="160" relative="1" as="geometry">
            <mxPoint x="550" y="880" as="sourcePoint" />
            <mxPoint x="678" y="820" as="targetPoint" />
          </mxGeometry>
        </mxCell>
        <mxCell id="HUOojAvi6_j62QEI-yOp-61" value="&amp;lt;&amp;lt;Include&amp;gt;&amp;gt;" style="endArrow=open;endSize=12;dashed=1;html=1;rounded=0;exitX=1;exitY=0.5;exitDx=0;exitDy=0;entryX=0;entryY=0.5;entryDx=0;entryDy=0;" parent="HUOojAvi6_j62QEI-yOp-5" source="HUOojAvi6_j62QEI-yOp-58" target="HUOojAvi6_j62QEI-yOp-59" edge="1">
          <mxGeometry width="160" relative="1" as="geometry">
            <mxPoint x="740" y="860" as="sourcePoint" />
            <mxPoint x="868" y="800" as="targetPoint" />
          </mxGeometry>
        </mxCell>
        <mxCell id="HUOojAvi6_j62QEI-yOp-62" value="Получить список предыдущих поездок" style="ellipse;whiteSpace=wrap;html=1;" parent="HUOojAvi6_j62QEI-yOp-5" vertex="1">
          <mxGeometry x="400" y="390" width="140" height="70" as="geometry" />
        </mxCell>
        <mxCell id="HUOojAvi6_j62QEI-yOp-64" value="&quot;&quot;Extend&quot;&quot;" style="endArrow=open;endSize=12;dashed=1;html=1;rounded=0;exitX=0.833;exitY=0.055;exitDx=0;exitDy=0;exitPerimeter=0;entryX=0;entryY=1;entryDx=0;entryDy=0;" parent="HUOojAvi6_j62QEI-yOp-5" source="HUOojAvi6_j62QEI-yOp-42" target="HUOojAvi6_j62QEI-yOp-62" edge="1">
          <mxGeometry width="160" relative="1" as="geometry">
            <mxPoint x="300" y="620" as="sourcePoint" />
            <mxPoint x="445" y="559" as="targetPoint" />
          </mxGeometry>
        </mxCell>
        <mxCell id="HUOojAvi6_j62QEI-yOp-66" value="&quot;&quot;Extend&quot;&quot;" style="endArrow=open;endSize=12;dashed=1;html=1;rounded=0;exitX=0.965;exitY=0.32;exitDx=0;exitDy=0;exitPerimeter=0;entryX=0;entryY=0.5;entryDx=0;entryDy=0;" parent="HUOojAvi6_j62QEI-yOp-5" source="HUOojAvi6_j62QEI-yOp-43" target="HUOojAvi6_j62QEI-yOp-67" edge="1">
          <mxGeometry width="160" relative="1" as="geometry">
            <mxPoint x="642.5" y="561" as="sourcePoint" />
            <mxPoint x="720" y="465" as="targetPoint" />
          </mxGeometry>
        </mxCell>
        <mxCell id="xpUao5AcZO3L4nGrGWGt-10" value="" style="edgeStyle=orthogonalEdgeStyle;rounded=0;orthogonalLoop=1;jettySize=auto;html=1;endArrow=open;endFill=0;dashed=1;" edge="1" parent="HUOojAvi6_j62QEI-yOp-5" source="xpUao5AcZO3L4nGrGWGt-13" target="xpUao5AcZO3L4nGrGWGt-9">
          <mxGeometry relative="1" as="geometry" />
        </mxCell>
        <mxCell id="HUOojAvi6_j62QEI-yOp-67" value="Чат" style="ellipse;whiteSpace=wrap;html=1;" parent="HUOojAvi6_j62QEI-yOp-5" vertex="1">
          <mxGeometry x="690" y="570" width="140" height="70" as="geometry" />
        </mxCell>
        <mxCell id="HUOojAvi6_j62QEI-yOp-68" value="Закончить стрим" style="ellipse;whiteSpace=wrap;html=1;" parent="HUOojAvi6_j62QEI-yOp-5" vertex="1">
          <mxGeometry x="690" y="390" width="140" height="70" as="geometry" />
        </mxCell>
        <mxCell id="HUOojAvi6_j62QEI-yOp-70" value="&amp;lt;&amp;lt;Include&amp;gt;&amp;gt;" style="endArrow=open;endSize=12;dashed=1;html=1;rounded=0;exitX=1;exitY=0.5;exitDx=0;exitDy=0;entryX=0;entryY=0.5;entryDx=0;entryDy=0;" parent="HUOojAvi6_j62QEI-yOp-5" source="HUOojAvi6_j62QEI-yOp-43" target="HUOojAvi6_j62QEI-yOp-68" edge="1">
          <mxGeometry width="160" relative="1" as="geometry">
            <mxPoint x="600" y="680" as="sourcePoint" />
            <mxPoint x="730" y="770" as="targetPoint" />
          </mxGeometry>
        </mxCell>
        <mxCell id="HUOojAvi6_j62QEI-yOp-73" value="Просмотреть статистику стрима" style="ellipse;whiteSpace=wrap;html=1;" parent="HUOojAvi6_j62QEI-yOp-5" vertex="1">
          <mxGeometry x="1010" y="640" width="140" height="70" as="geometry" />
        </mxCell>
        <mxCell id="HUOojAvi6_j62QEI-yOp-74" value="&quot;&quot;Extend&quot;&quot;" style="endArrow=open;endSize=12;dashed=1;html=1;rounded=0;exitX=1;exitY=0.5;exitDx=0;exitDy=0;entryX=0;entryY=0.5;entryDx=0;entryDy=0;" parent="HUOojAvi6_j62QEI-yOp-5" source="HUOojAvi6_j62QEI-yOp-68" target="HUOojAvi6_j62QEI-yOp-73" edge="1">
          <mxGeometry width="160" relative="1" as="geometry">
            <mxPoint x="890" y="650" as="sourcePoint" />
            <mxPoint x="980" y="550" as="targetPoint" />
          </mxGeometry>
        </mxCell>
        <mxCell id="xpUao5AcZO3L4nGrGWGt-4" value="Задонатить" style="ellipse;whiteSpace=wrap;html=1;" vertex="1" parent="HUOojAvi6_j62QEI-yOp-5">
          <mxGeometry x="910" y="850" width="140" height="70" as="geometry" />
        </mxCell>
        <mxCell id="xpUao5AcZO3L4nGrGWGt-9" value="Отправить жалобу" style="ellipse;whiteSpace=wrap;html=1;" vertex="1" parent="HUOojAvi6_j62QEI-yOp-5">
          <mxGeometry x="1050" y="530" width="130" height="70" as="geometry" />
        </mxCell>
        <mxCell id="xpUao5AcZO3L4nGrGWGt-13" value="&quot;Extend&quot;" style="text;html=1;align=center;verticalAlign=middle;resizable=0;points=[];autosize=1;strokeColor=none;fillColor=none;" vertex="1" parent="HUOojAvi6_j62QEI-yOp-5">
          <mxGeometry x="867" y="590" width="70" height="30" as="geometry" />
        </mxCell>
        <mxCell id="xpUao5AcZO3L4nGrGWGt-14" value="" style="edgeStyle=orthogonalEdgeStyle;rounded=0;orthogonalLoop=1;jettySize=auto;html=1;endArrow=none;endFill=0;dashed=1;" edge="1" parent="HUOojAvi6_j62QEI-yOp-5" source="HUOojAvi6_j62QEI-yOp-67" target="xpUao5AcZO3L4nGrGWGt-13">
          <mxGeometry relative="1" as="geometry">
            <mxPoint x="720" y="1015" as="sourcePoint" />
            <mxPoint x="940" y="975" as="targetPoint" />
          </mxGeometry>
        </mxCell>
        <mxCell id="HUOojAvi6_j62QEI-yOp-44" value="" style="endArrow=none;html=1;rounded=0;exitX=0.5;exitY=0.5;exitDx=0;exitDy=0;exitPerimeter=0;entryX=-0.006;entryY=0.588;entryDx=0;entryDy=0;entryPerimeter=0;" parent="1" source="HUOojAvi6_j62QEI-yOp-2" target="HUOojAvi6_j62QEI-yOp-41" edge="1">
          <mxGeometry width="50" height="50" relative="1" as="geometry">
            <mxPoint x="-50" y="970" as="sourcePoint" />
            <mxPoint y="920" as="targetPoint" />
          </mxGeometry>
        </mxCell>
        <mxCell id="HUOojAvi6_j62QEI-yOp-45" value="" style="endArrow=none;html=1;rounded=0;exitX=0.5;exitY=0.5;exitDx=0;exitDy=0;exitPerimeter=0;entryX=0;entryY=0.5;entryDx=0;entryDy=0;" parent="1" source="HUOojAvi6_j62QEI-yOp-2" target="HUOojAvi6_j62QEI-yOp-42" edge="1">
          <mxGeometry width="50" height="50" relative="1" as="geometry">
            <mxPoint x="-20" y="1110" as="sourcePoint" />
            <mxPoint x="30" y="1060" as="targetPoint" />
          </mxGeometry>
        </mxCell>
        <mxCell id="HUOojAvi6_j62QEI-yOp-52" value="Аудитория" style="shape=umlActor;verticalLabelPosition=bottom;verticalAlign=top;html=1;outlineConnect=0;" parent="1" vertex="1">
          <mxGeometry x="-210" y="1200" width="30" height="60" as="geometry" />
        </mxCell>
        <mxCell id="HUOojAvi6_j62QEI-yOp-54" value="" style="endArrow=none;html=1;rounded=0;exitX=0.5;exitY=0.5;exitDx=0;exitDy=0;exitPerimeter=0;entryX=0;entryY=0.5;entryDx=0;entryDy=0;" parent="1" source="HUOojAvi6_j62QEI-yOp-52" target="HUOojAvi6_j62QEI-yOp-49" edge="1">
          <mxGeometry width="50" height="50" relative="1" as="geometry">
            <mxPoint x="-10" y="1280" as="sourcePoint" />
            <mxPoint x="40" y="1230" as="targetPoint" />
          </mxGeometry>
        </mxCell>
        <mxCell id="xpUao5AcZO3L4nGrGWGt-7" style="edgeStyle=orthogonalEdgeStyle;rounded=0;orthogonalLoop=1;jettySize=auto;html=1;exitX=0.5;exitY=0.5;exitDx=0;exitDy=0;exitPerimeter=0;entryX=1;entryY=0.5;entryDx=0;entryDy=0;endArrow=none;endFill=0;" edge="1" parent="1" source="HUOojAvi6_j62QEI-yOp-75" target="xpUao5AcZO3L4nGrGWGt-4">
          <mxGeometry relative="1" as="geometry">
            <Array as="points">
              <mxPoint x="1425" y="1120" />
              <mxPoint x="1170" y="1120" />
              <mxPoint x="1170" y="1295" />
            </Array>
          </mxGeometry>
        </mxCell>
        <mxCell id="HUOojAvi6_j62QEI-yOp-75" value="Приложение" style="shape=umlActor;verticalLabelPosition=bottom;verticalAlign=top;html=1;" parent="1" vertex="1">
          <mxGeometry x="1410" y="920" width="30" height="60" as="geometry" />
        </mxCell>
        <mxCell id="HUOojAvi6_j62QEI-yOp-78" value="" style="endArrow=none;html=1;rounded=0;exitX=1;exitY=0.5;exitDx=0;exitDy=0;entryX=0.5;entryY=0.5;entryDx=0;entryDy=0;entryPerimeter=0;" parent="1" source="HUOojAvi6_j62QEI-yOp-41" target="HUOojAvi6_j62QEI-yOp-75" edge="1">
          <mxGeometry width="50" height="50" relative="1" as="geometry">
            <mxPoint x="580" y="670" as="sourcePoint" />
            <mxPoint x="630" y="620" as="targetPoint" />
          </mxGeometry>
        </mxCell>
        <mxCell id="HUOojAvi6_j62QEI-yOp-79" value="" style="endArrow=none;html=1;rounded=0;exitX=1;exitY=0.5;exitDx=0;exitDy=0;entryX=0.5;entryY=0.5;entryDx=0;entryDy=0;entryPerimeter=0;" parent="1" source="HUOojAvi6_j62QEI-yOp-59" target="HUOojAvi6_j62QEI-yOp-75" edge="1">
          <mxGeometry width="50" height="50" relative="1" as="geometry">
            <mxPoint x="1120" y="1180" as="sourcePoint" />
            <mxPoint x="1170" y="1130" as="targetPoint" />
          </mxGeometry>
        </mxCell>
        <mxCell id="HUOojAvi6_j62QEI-yOp-80" value="" style="endArrow=none;html=1;rounded=0;exitX=1;exitY=0.5;exitDx=0;exitDy=0;entryX=0.5;entryY=0.5;entryDx=0;entryDy=0;entryPerimeter=0;" parent="1" source="HUOojAvi6_j62QEI-yOp-68" target="HUOojAvi6_j62QEI-yOp-75" edge="1">
          <mxGeometry width="50" height="50" relative="1" as="geometry">
            <mxPoint x="1010" y="1010" as="sourcePoint" />
            <mxPoint x="1060" y="960" as="targetPoint" />
          </mxGeometry>
        </mxCell>
        <mxCell id="HUOojAvi6_j62QEI-yOp-81" value="" style="endArrow=none;html=1;rounded=0;exitX=1;exitY=0;exitDx=0;exitDy=0;entryX=0.5;entryY=0.5;entryDx=0;entryDy=0;entryPerimeter=0;" parent="1" source="HUOojAvi6_j62QEI-yOp-68" target="HUOojAvi6_j62QEI-yOp-75" edge="1">
          <mxGeometry width="50" height="50" relative="1" as="geometry">
            <mxPoint x="980" y="815" as="sourcePoint" />
            <mxPoint x="1130" y="900" as="targetPoint" />
          </mxGeometry>
        </mxCell>
        <mxCell id="HUOojAvi6_j62QEI-yOp-82" value="" style="endArrow=none;html=1;rounded=0;exitX=1;exitY=0.5;exitDx=0;exitDy=0;entryX=0.5;entryY=0.5;entryDx=0;entryDy=0;entryPerimeter=0;" parent="1" source="HUOojAvi6_j62QEI-yOp-53" target="HUOojAvi6_j62QEI-yOp-75" edge="1">
          <mxGeometry width="50" height="50" relative="1" as="geometry">
            <mxPoint x="870" y="1430" as="sourcePoint" />
            <mxPoint x="920" y="1380" as="targetPoint" />
          </mxGeometry>
        </mxCell>
        <mxCell id="xpUao5AcZO3L4nGrGWGt-3" value="&quot;Extend&quot;" style="text;html=1;align=center;verticalAlign=middle;resizable=0;points=[];autosize=1;strokeColor=none;fillColor=none;" vertex="1" parent="1">
          <mxGeometry x="615" y="1098" width="70" height="30" as="geometry" />
        </mxCell>
        <mxCell id="xpUao5AcZO3L4nGrGWGt-11" style="edgeStyle=orthogonalEdgeStyle;rounded=0;orthogonalLoop=1;jettySize=auto;html=1;exitX=1;exitY=0.5;exitDx=0;exitDy=0;entryX=0;entryY=0.3333333333333333;entryDx=0;entryDy=0;entryPerimeter=0;endArrow=none;endFill=0;" edge="1" parent="1" source="xpUao5AcZO3L4nGrGWGt-9" target="HUOojAvi6_j62QEI-yOp-75">
          <mxGeometry relative="1" as="geometry">
            <mxPoint x="1420" y="950" as="targetPoint" />
          </mxGeometry>
        </mxCell>
      </root>
    </mxGraphModel>
  </diagram>
</mxfile>
